<mxfile host="app.diagrams.net" modified="2023-03-17T08:25:02.705Z" agent="5.0 (Windows NT 10.0; Win64; x64) AppleWebKit/537.36 (KHTML, like Gecko) Chrome/111.0.0.0 Safari/537.36" etag="4aoerAB33ClNL5NmUehD" version="21.0.6" type="github">
  <diagram id="K4g5H_F3tM1JXKE1jrMc" name="Page-1">
    <mxGraphModel dx="1562" dy="829" grid="0" gridSize="10" guides="1" tooltips="1" connect="1" arrows="1" fold="1" page="1" pageScale="1" pageWidth="1200" pageHeight="1920" math="0" shadow="0">
      <root>
        <mxCell id="0" />
        <mxCell id="1" parent="0" />
      </root>
    </mxGraphModel>
  </diagram>
</mxfile>
